<?xml version="1.0" encoding="iso-8859-1"?>
<!-- Generator: Adobe Illustrator 19.0.0, SVG Export Plug-In . SVG Version: 6.00 Build 0)  -->
<svg version="1.1" id="Capa_1" xmlns="http://www.w3.org/2000/svg" xmlns:xlink="http://www.w3.org/1999/xlink" x="0px" y="0px"
	 viewBox="0 0 512 512" style="enable-background:new 0 0 512 512;" xml:space="preserve">
<g transform="matrix(1.25 0 0 -1.25 0 45)">
	<g>
		<g>
			<path style="fill:#EF9645;" d="M113.778-20.434c0,15.485,12.561,28.046,28.046,28.046h0.796
				c15.485,0,28.046-12.561,28.046-28.046V4.142c0,14.484,11.742,26.226,26.226,26.226h4.437c14.484,0,26.226-11.742,26.226-26.226
				V-9.454c0,15.713,12.732,28.444,28.444,28.444c15.713,0,28.444-12.732,28.444-28.444v-106.348
				c0,11.605,9.409,21.015,21.003,21.015h3.504c11.594,0,21.003-9.409,21.003-21.015v-111.57c0-11.605-9.409-21.015-21.003-21.015
				H307.2v-11.378h-24.462c-7.919-38.958-42.348-68.267-83.627-68.267c-47.138,0-85.333,38.195-85.333,85.333v68.267
				c0,2.469,0.171,4.904,0.364,7.316c-0.148,1.206-0.364,2.401-0.364,3.664V-20.434z"/>
			<path style="fill:#FFDC5D;" d="M68.267-55.022c0,0,0,22.756,22.756,22.756s22.756-22.756,22.756-22.756v-105.654
				c0,1.673,11.378,3.197,11.378,4.528V-9.511c0,0,0,22.756,22.756,22.756s22.756-22.756,22.756-22.756v-137.921
				c0,0.319,11.378,0.592,11.378,0.785V13.244c0,0,0,22.756,22.756,22.756s22.756-22.756,22.756-22.756v-159.881
				c0-0.193,11.378-0.592,11.378-0.922V1.867c0,0,0,22.756,22.756,22.756s22.756-22.756,22.756-22.756v-158.015V-168.8v-11.378
				c-68.267,0-113.778-56.889-113.778-113.778c0-11.378,11.378-11.378,11.378-11.378c0,68.267,45.511,113.778,113.778,113.778
				v30.879v48.765c0,0,0,22.756,22.756,22.756s22.756-22.756,22.756-22.756v-125.156c0-75.401-61.133-136.533-136.533-136.533
				S68.267-312.467,68.267-237.067v11.378V-55.022z"/>
		</g>
	</g>
</g>
<g>
</g>
<g>
</g>
<g>
</g>
<g>
</g>
<g>
</g>
<g>
</g>
<g>
</g>
<g>
</g>
<g>
</g>
<g>
</g>
<g>
</g>
<g>
</g>
<g>
</g>
<g>
</g>
<g>
</g>
</svg>
