<?xml version="1.0" encoding="iso-8859-1"?>
<!-- Generator: Adobe Illustrator 19.0.0, SVG Export Plug-In . SVG Version: 6.00 Build 0)  -->
<svg version="1.1" id="Capa_1" xmlns="http://www.w3.org/2000/svg" xmlns:xlink="http://www.w3.org/1999/xlink" x="0px" y="0px"
	 viewBox="0 0 498.546 498.546" style="enable-background:new 0 0 498.546 498.546;" xml:space="preserve">
<g transform="matrix(1.25 0 0 -1.25 0 45)">
	<g>
		<g>
			<path style="fill:#EF9645;" d="M197.602-67.959l56.969,0.535h68.437c11.071,0,25.782,0.432,36.363-9.944
				c-9.227,13.505-24.713,22.391-42.303,22.391h-5.689l-2.765,1.058h-64.364l0.182,45.511c0,9.239,6.042,17.954,8.351,22.733
				c-12.47-6.724-21.049-19.752-21.049-34.918l-0.99-3.095v-30.231l-33.143-0.171c-13.665,0-24.826-4.858-33.166-14.404
				l-0.182,15.644l0.182,54.932c0,8.624,4.619,16.361,7.6,22.232c-11.867-7.873-19.945-22.403-19.945-39.219v-5.939l-2.059-11.127
				l0.353-91.273c0-10.149-4.71-17.931-11.73-24.178c-6.03-5.37-11.981-7.475-20.696-7.475c-18.853,0-32.814,14.575-32.814,33.428
				L84.962-18.181c0,9.284,5.154,15.826,8.613,21.174C81.059-3.72,72.446-16.77,72.446-31.971v-21.458l-0.819-2.446v-68.927
				c0-22.619-21.504-31.687-32.176-31.687c-19.547,0-35.271,13.687-35.271,31.687v-30.094c0,0,2.105-2.378,2.207-3.55
				c10.024-10.047,24.53-11.56,33.951-11.56c18.136,0,30.538,9.682,37.979,23.472c7.703-13.801,21.754-22.938,39.003-22.938
				s41.927,8.397,46.148,38.047c1.604-1.9,5.757-5.803,7.714-7.293c8.01-6.042,18.034-8.351,26.419-8.351l12.698,0.353h19.729
				c-6.087-3.072-8.841-6.281-13.687-10.661c-19.672-17.84-29.332-46.581-29.332-87.29c0-3.152,3.607-6.406,6.758-6.406
				c3.14,0,6.576,3.618,6.576,6.758c0,45.079,11.071,71.987,36.443,86.05c13.369,7.407,29.878,11.014,51.382,11.014
				c0.66,0,6.394,0.364,6.394,0.364c3.152,0,6.758,3.789,6.758,6.929c0,3.14-3.083,6.224-6.224,6.224h-73.239l-24.257,0.171
				c-18.853,0-33.166,14.575-33.166,33.428S178.749-67.959,197.602-67.959"/>
			<g>
				<path style="fill:#FFDC5D;" d="M39.724-168.8c16.771,0,31.152,9.455,38.593,23.245c7.703-13.801,22.278-23.245,39.208-23.245
					h0.865c13.119,0,24.678,5.803,32.87,14.768c0.262,0.284,0.58,0.489,0.831,0.774v0.159c2.105,2.412,3.903,5.097,5.473,7.908
					c0.444,0.831,0.785,1.729,1.195,2.583c1.058,2.207,2.002,4.483,2.685,6.895c0.592,1.968,1.217,3.914,1.525,5.985
					c1.604-1.9,3.368-3.641,5.234-5.245c0.785-0.671,1.673-1.217,2.514-1.843c1.32-0.979,2.606-2.014,4.039-2.856
					c6.702-3.982,14.461-6.372,22.847-6.372h36.022c-6.087-3.072-11.366-6.986-16.213-11.378
					c-19.672-17.84-29.332-46.478-29.332-87.188c0-3.152,2.537-5.689,5.689-5.689c3.14,0,5.689,2.537,5.689,5.689
					c0,45.079,11.492,73.125,36.864,87.188c13.358,7.407,30.515,11.002,52.008,11.002c0.671,0,5.985,0.375,5.985,0.375
					c3.14,0,5.689,2.549,5.689,5.689s-2.549,5.689-5.689,5.689h-96.711c-18.853,0-34.133,15.28-34.133,34.133
					S178.749-66.4,197.602-66.4h125.156c11.071,0,26.032-0.637,36.614-11.002c3.686-3.618,6.872-8.374,9.136-14.768l18.876-62.248
					c1.775-5.825,8.306-32.506,7.134-38.07c0-83.513-98.998-170.348-216.223-170.348C64.778-362.837,4.18-270.472,4.18-157.547
					v2.617c0.114-0.125,0.239-0.182,0.353-0.307c10.024-10.035,20.469-13.562,32.37-13.562H39.724z"/>
				<path style="fill:#FFDC5D;" d="M36.766-20.889h3.083c18,0,32.597-14.586,32.597-32.586v-36.318v-35.044
					c0-18-14.598-32.586-32.597-32.586h-3.083c-18,0-32.586,14.586-32.586,32.586v7.236v64.125
					C4.18-35.475,18.766-20.889,36.766-20.889"/>
				<path style="fill:#FFDC5D;" d="M152.091-58.117v-65.126c0-10.149-4.506-19.16-11.537-25.407
					c-6.03-5.37-13.881-8.727-22.596-8.727c-18.853,0-34.133,15.28-34.133,34.133v102.4c0,9.284,3.732,17.681,9.751,23.825
					c6.19,6.349,14.814,10.308,24.383,10.308c18.853,0,34.133-15.292,34.133-34.133v-11.127V-58.117z"/>
				<path style="fill:#FFDC5D;" d="M197.602-55.022c-13.665,0-25.793-6.155-34.133-15.701v15.132V1.867
					c0,8.624,3.3,16.407,8.567,22.414C178.294,31.403,187.373,36,197.602,36c18.853,0,34.133-15.28,34.133-34.133V-14.95v-5.689
					v-34.384H197.602z"/>
				<path style="fill:#FFDC5D;" d="M243.113-9.397c0,9.239,3.709,17.579,9.671,23.723c6.189,6.349,14.814,10.331,24.383,10.331
					h0.159c18.807,0,34.054-15.246,34.054-34.054v-11.196v-34.395h-68.267V-9.397z"/>
			</g>
		</g>
	</g>
</g>
<g>
</g>
<g>
</g>
<g>
</g>
<g>
</g>
<g>
</g>
<g>
</g>
<g>
</g>
<g>
</g>
<g>
</g>
<g>
</g>
<g>
</g>
<g>
</g>
<g>
</g>
<g>
</g>
<g>
</g>
</svg>
