<?xml version="1.0" encoding="iso-8859-1"?>
<!-- Generator: Adobe Illustrator 19.0.0, SVG Export Plug-In . SVG Version: 6.00 Build 0)  -->
<svg version="1.1" id="Capa_1" xmlns="http://www.w3.org/2000/svg" xmlns:xlink="http://www.w3.org/1999/xlink" x="0px" y="0px"
	 viewBox="0 0 470.913 470.913" style="enable-background:new 0 0 470.913 470.913;" xml:space="preserve">
<g transform="matrix(1.25 0 0 -1.25 0 45)">
	<g>
		<g>
			<path style="fill:#EF9645;" d="M82.642-202.945c0,0,19.763-1.24,22.073,20.571l0.182,47.343l1.456,0.057v10.923
				c0,10.832,6.508,20.116,15.804,24.257c-2.753-3.755-3.22-81.636-3.22-81.636c0-12.572,8.977-21.515,21.55-21.515
				c8.59,0,14.393,3.573,18.273,10.604c-5.211,5.985-8.351,13.722-8.351,22.289c0,14.928,8.886,24.348,12.834,25.27
				c0,0,0.637,0.796,0.933,0.956c4.187,3.482,9.148,6.087,14.689,7.225l0.228-0.023l2.958,1.764h78.825
				c14.871,0,17.727-5.53,17.499-5.404l0.228-0.125c6.724-3.47,12.254-8.784,15.974-15.36c-0.284,0.353-7.737,7.202-17.556,7.202
				c-9.819,0-91.022,0.535-91.022,0.535c-12.572,0-21.902-9.478-21.902-22.039c0-12.572,9.33-21.868,21.902-21.868l62.578,0.171
				c3.14,0,6.724-3.607,6.724-6.747c0-3.152-3.584-6.576-6.724-6.576c0,0-17.727,0.785-32.393-14.222
				c-13.756-14.086-23.643-43.281-23.643-64.535c0-3.152-3.402-6.576-6.542-6.576c-3.14,0-6.611,3.425-6.611,6.576
				c0,34.236,10.706,62.862,31.289,78.393h-24.678c-11.378,0-14.484,2.776-16.771,4.096c0.011-0.011-7.976-15.474-28.74-15.474
				c-2.697,0-18.523,0.535-28.297,14.404c-12.8-16.179-29.309-14.404-29.309-14.404c-8.34,0-17.806,3.732-21.72,9.489
				c-0.148,1.035-0.319,2.059-0.319,3.14v21.811C60.842-194.423,70.593-202.945,82.642-202.945"/>
			<g>
				<path style="fill:#FFDC5D;" d="M260.875-135.93h-70.11h-4.767c-2.367,0-4.676-0.239-6.918-0.694l-0.831,3.163L141.021,8.351
					c0,0-4.733,22.266,17.522,26.988c22.255,4.733,26.988-17.522,26.988-17.522l35.237-131.63c5.074-0.273,9.99-0.717,14.848-1.217
					l23.45,119.603c0,0,2.139,22.653,24.804,20.526c22.653-2.139,20.514-24.792,20.514-24.792L280.888-126.68l-2.514-13.585
					C273.094-137.591,267.201-135.93,260.875-135.93"/>
				<path style="fill:#FFDC5D;" d="M82.642-113.175h1.911c12.049,0,21.8-9.762,21.8-21.811v-46.455v-0.944
					c0-12.049-9.751-21.811-21.8-21.811h-1.911c-12.049,0-21.8,9.762-21.8,21.811v0.944v46.455
					C60.842-122.937,70.593-113.175,82.642-113.175"/>
				<path style="fill:#FFDC5D;" d="M151.864-170.064c0-8.567,3.265-16.304,8.476-22.289c-3.88-7.02-11.264-11.844-19.854-11.844
					c-12.561,0-22.756,10.194-22.756,22.756v68.267c0,5.018,1.673,9.614,4.426,13.38c4.142,5.655,10.775,9.375,18.33,9.375
					c12.561,0,22.756-10.194,22.756-22.756v-10.889v-20.207v-0.512C156.313-151.029,151.864-159.983,151.864-170.064"/>
				<path style="fill:#FFDC5D;" d="M84.28-215.575c11.651,0,21.902,5.985,27.876,15.041c1.399-2.071,3.083-3.925,4.904-5.655
					c0.558-0.523,1.161-0.967,1.764-1.456c1.354-1.115,2.765-2.139,4.289-3.049c0.751-0.444,1.502-0.853,2.287-1.24
					c1.593-0.785,3.243-1.422,4.961-1.957c0.762-0.228,1.49-0.512,2.276-0.694c2.526-0.603,5.12-0.99,7.817-0.99
					s5.245,0.41,7.748,1.013c0.865,0.193,1.695,0.478,2.537,0.751c1.547,0.501,3.049,1.126,4.494,1.832
					c0.933,0.455,1.855,0.876,2.742,1.411c1.866,1.138,3.618,2.423,5.234,3.88c2.298,2.094,4.358,4.403,6.03,7.031
					c-0.011,0.011-0.023,0.023-0.034,0.034c2.287-1.308,5.382-4.574,16.771-4.574h28.865
					c-20.582-15.531-34.554-45.397-34.554-79.644c0-3.14,2.537-5.689,5.689-5.689c3.14,0,5.689,2.549,5.689,5.689
					c0,43.907,24.883,79.644,55.467,79.644h1.422c3.14,0,5.689,2.549,5.689,5.689c0,3.14-2.549,5.689-5.689,5.689h-17.067h-45.511
					c-12.572,0-22.767,10.194-22.767,22.756s10.194,22.756,22.767,22.756h91.011c0.375,0,0.717-0.091,1.081-0.114
					c0.819-0.034,1.638-0.102,2.458-0.239c0.705-0.114,1.388-0.25,2.071-0.421c0.717-0.193,1.422-0.398,2.116-0.66
					c0.705-0.25,1.388-0.535,2.059-0.853c0.648-0.307,1.263-0.66,1.877-1.024c0.637-0.375,1.24-0.762,1.832-1.206
					c0.592-0.432,1.161-0.91,1.707-1.411c0.523-0.478,1.024-0.956,1.502-1.479c0.307-0.33,0.58-0.694,0.865-1.035
					c0.193-0.239,0.398-0.466,0.592-0.717c0.432-0.569,0.831-1.161,1.206-1.775c0.387-0.637,0.728-1.274,1.058-1.946
					c0.341-0.694,0.637-1.422,0.91-2.162c0.125-0.353,0.319-0.683,0.444-1.058l12.356-40.789c1.172-3.812,5.45-21.288,4.676-24.929
					c0-54.716-53.43-111.605-118.443-111.605c-74.388,0-134.758,59.517-136.385,133.507c0.057-0.034,0.114-0.068,0.159-0.114
					c5.86-5.063,13.392-8.238,21.732-8.238H84.28z"/>
			</g>
		</g>
	</g>
</g>
<g>
</g>
<g>
</g>
<g>
</g>
<g>
</g>
<g>
</g>
<g>
</g>
<g>
</g>
<g>
</g>
<g>
</g>
<g>
</g>
<g>
</g>
<g>
</g>
<g>
</g>
<g>
</g>
<g>
</g>
</svg>
